<svg xmlns="http://www.w3.org/2000/svg" shape-rendering="geometricPrecision" text-rendering="geometricPrecision" image-rendering="optimizeQuality" fill-rule="evenodd" clip-rule="evenodd" viewBox="0 0 1050 600">
    <path fill="none" d="M1050 300C984 166 834 72 660 72s-389 82-390 228M1050 300c-66 134-216 228-390 228s-389-82-390-228"/>
    <path fill="none" d="M80 300C-25 242 3 108 3 108c152 0 169 118 288 118M80 300C-25 358 3 492 3 492c152 0 169-118 288-118M890 132c-46 44-71 73-71 168M890 468c-46-44-71-73-71-168M761 83c0-148-311-59-349-23-48 46 44 24 56 44M761 517c0 148-311 59-349 23-48-45 44-23 56-44M959 300c0-32-49-32-49 0s49 32 49 0z"/>
    <path fill="none" d="M959 300c0-32-49-32-49 0s49 32 49 0z"/>
    <path fill="none" d="M1050 300c-66 134-216 228-390 228s-389-82-390-228M1050 300C984 166 834 72 660 72s-389 82-390 228"/>
    <path fill="none" d="M80 300C-25 358 3 492 3 492c152 0 169-118 288-118M80 300C-25 242 3 108 3 108c152 0 169 118 288 118M890 468c-46-44-71-73-71-168M890 132c-46 44-71 73-71 168M761 517c0 148-311 59-349 23-48-45 44-23 56-44M761 83c0-148-311-59-349-23-48 46 44 24 56 44M959 300c0-32-49-32-49 0s49 32 49 0z"/>
    <path fill="none" d="M959 300c0-32-49-32-49 0s49 32 49 0zM469 497c-36-59-44-155-44-197M469 103c-36 59-44 155-44 197M761 517c-62-103-64-179-64-217M761 83c-62 103-64 179-64 217M609 526c-43-71-55-159-55-226M609 74c-43 71-55 159-55 225M350 437c-28-47-41-96-41-137M350 163c-28 47-41 96-41 137"/>
    <path fill="#7688A1" d="M819 300c0 95 25 124 71 168 70-40 126-99 160-168-34-69-90-127-160-168-46 44-71 73-71 168zm116 25c-34 0-34-49 0-49s34 49 0 49zM609 526c-47-4-95-14-140-29-12 20-104-2-56 44 38 36 349 125 349-23-77 17-87 8-152 8zM412 60c-48 46 44 24 56 44 91-30 198-41 292-20 0-148-311-59-349-23z"/>
    <path fill="#7688A1" d="M412 60c-48 46 44 24 56 44 91-30 198-41 292-20 0-148-311-59-349-23zM291 226C172 226 156 108 3 108c0 0-28 134 77 192C-25 358 3 492 3 492c152 0 169-118 288-118-27-47-27-101 0-148zM469 497c-12 20-104-2-56 44 38 36 349 125 349-23-150 33-285-20-292-20z"/>
    <path fill="#FCC204" d="M890 468c70-40 126-99 160-168-34-69-90-127-160-168-99 94-99 241 0 335zm45-143c-34 0-34-49 0-49s34 49 0 49zM469 497c-12 20-104-2-56 44 38 36 349 125 349-23-92 20-203 9-292-20zM3 492c152 0 169-118 288-118-27-47-27-101 0-148-119 0-135-118-288-118 0 0-28 134 77 192C-25 358 3 492 3 492z"/>
    <path fill="#7688A1" d="M469 103c91-30 198-41 292-20 0-148-311-59-349-23-48 46 44 24 56 44z"/>
    <path fill="#FCC204" d="M761 83c0-148-311-59-349-23-48 46 44 24 56 44 92-30 197-41 292-20z"/>
    <path fill="#E95821" d="M350 163c-106 79-107 195 0 275-55-91-55-184 0-275zM469 497c45 15 93 25 140 29-74-122-74-329 0-451-47 4-95 14-140 29-58 96-58 298 0 394zM761 517c46-10 90-27 129-50-99-94-99-241 0-335-39-22-83-39-129-49-85 141-85 294 0 434z"/>
    <path fill="#7688A1" d="M469 497c-58-96-58-298 0-394-45 15-86 35-119 60-28 47-41 96-41 137 0 42 13 91 41 137 33 25 74 45 119 59z"/>
    <path fill="#2B2A29" d="M909 300c0 33 51 32 51 0s-51-32-51 0z"/>
    <path fill="#FEF4E9" d="M469 497c-58-96-58-298 0-394-45 15-86 35-119 60-55 91-55 184 0 275 33 25 74 45 119 59zM609 526c53 5 101 3 152-8-85-141-85-293 0-434-51-11-99-13-152-8-72 118-70 335 0 451z"/>
    <path fill="#2B2A29" d="M909 300c0 33 51 32 51 0s-51-32-51 0z"/>
</svg>
