<?xml version="1.0" encoding="UTF-8"?>
<!DOCTYPE svg PUBLIC "-//W3C//DTD SVG 1.0//EN" "http://www.w3.org/TR/2001/REC-SVG-20010904/DTD/svg10.dtd">
<!-- Creator: CorelDRAW 2018 (64-Bit) -->
<svg xmlns="http://www.w3.org/2000/svg" xml:space="preserve" width="2480px" height="2480px" version="1.0" shape-rendering="geometricPrecision" text-rendering="geometricPrecision" image-rendering="optimizeQuality" fill-rule="evenodd" clip-rule="evenodd"
viewBox="0 0 2480 2480"
 xmlns:xlink="http://www.w3.org/1999/xlink">
 <g id="Слой_x0020_1">
  <metadata id="CorelCorpID_0Corel-Layer"/>
  <g id="_2113281645376">
   <path fill="#1A82A3" d="M359.33 757.23c191.8,-41.94 211.13,148.23 215.94,306.98 3.29,108.5 9.15,369.88 -129.06,396.39 -58.12,11.15 -172.6,-13.78 -205.46,-57.82 -15.43,-20.67 -12.97,-29.1 -12.96,-58.62 0.1,-155.8 -5.29,-291.29 -1.01,-454.09 0.79,-30.05 14.4,-48.18 31.85,-69.82 6.91,-8.56 5.35,-8.62 13.6,-16.58 19.7,-19.03 48.05,-37.9 87.1,-46.44zm-106.66 767.22c1.08,0.5 2.4,1.33 3.1,1.77 53.89,33.61 104.92,72.31 175.02,70.96 216.99,-4.19 275.58,-281.93 285.51,-445 4.52,-74.35 -2.78,-152.33 -21.06,-221.15 -34.51,-129.92 -105.82,-222.4 -242.99,-244.27 -37.9,-6.04 -80.64,-0.52 -115.87,7.7 -47.34,11.05 -55.79,25.45 -83.71,36.97 -12.65,-12.95 -56.17,-83.7 -111.23,-24.49 -79.92,85.93 -67.98,338.07 -67.48,450.6 0.36,82.81 -13.97,402.56 79.8,437.73 24.29,9.11 52.74,-0.05 68.3,-14.5 15.93,-14.78 13.61,-24.38 21.39,-41.76l9.22 -14.56z"/>
   <path fill="#E1CAB8" d="M1035.39 1524.87c47.16,-0.69 42.45,53.07 37.29,112.04 -5.14,58.73 -22.86,195.68 -102.67,191.01 -20.49,-1.2 -36.47,-11.12 -53.75,-19.12 -16.71,-7.74 -35.37,-23.41 -54.75,-16.89 -16.38,29.9 4.89,58.14 28.93,67.96 32.88,13.42 59.74,11.35 100.21,11.54 42.02,0.21 58.85,-3.04 84.96,-26.45 124.9,-112.02 162.63,-441.69 115.23,-581.77 -12.1,-35.76 -33.37,-81.87 -75.3,-90.86 -40.03,-8.58 -49.97,23.63 -56.57,53.46 -4.19,18.9 -7.31,78.63 -7.25,101.28 0.16,56.3 -2.19,142.46 -46.41,180.29 -25.76,22.05 -48.65,27.31 -91,23.39 -40.18,-18.46 -9.22,-140.04 -2.78,-175.52 10.51,-57.94 33.64,-142.45 4.13,-186.46 -78.37,-12.12 -166.52,61.98 -146.84,180.58 17.51,105.61 22.04,207.73 112.2,239.84 98.04,34.91 122.79,-11.85 154.37,-64.32z"/>
   <path fill="#EFC160" d="M1535.86 1276.5c110.75,-46.3 32.1,169.16 23.37,219.71 -9.33,54.02 -8.92,104.08 35.89,121.57 33.27,12.99 72.97,2.99 91.98,-22.47 71.34,-95.55 65.44,-500.09 -205.51,-379.02 -36.8,16.45 -25.39,-8.84 -43.89,-30.8 -20.38,-24.21 -103.13,-55.72 -136.26,70.04 -15.34,58.23 -16.79,246.78 2.74,301.84 16.95,47.79 52.03,78.34 99.96,60.19 39.93,-15.12 17.09,-94.95 12.98,-131.44 -5.5,-48.81 -4.67,-100.24 21.74,-138.85 27.32,-39.94 55.75,-53.52 97,-70.77z"/>
   <path fill="#252525" d="M1841.23 1438.72c36.95,-1.59 57.48,84.1 116.33,109.18 24.4,10.4 47.99,3.38 59.18,20.7 -81.36,-7.28 -193.95,-14.72 -175.51,-129.88zm132.54 -102.2c47.43,15.05 -7.72,91.86 37.25,161.92 8.61,13.42 6.75,3.24 11.74,19.64 -27.93,-10.9 -97.55,-90.64 -48.99,-181.56zm-129.19 88.25l10.49 -20.36c48.91,-0.15 48.06,84.28 97.85,122.86 19.04,14.75 36.01,12.3 54.55,19.99 -22.13,18.61 -75.62,-18.64 -94.96,-43.4 -10.99,-14.06 -20.01,-26.6 -30.95,-41.06 -23.46,-31.05 -27.4,-22.16 -36.98,-38.03zm91.83 21.79c-0.36,16.79 12.07,36.72 21.9,49.39l34.8 40.07c-18.5,-5.28 -33.61,-11.58 -44.55,-21.55 -28.7,-26.13 -36.04,-93.52 -75.01,-117.53 17.97,-6.41 32.06,-10.15 42.59,-20.12l20.27 69.74zm0 0c1,-21.38 -35.31,-123.51 26.13,-107.37 -17.38,17.4 -19.37,71.58 -8.07,105.1 13.29,39.39 39.56,56.9 55.53,84.87 -50.18,-21.29 -54.95,-71.53 -73.59,-82.6zm322.38 -412.04l4.24 8.48 -4.24 -8.48zm0 0l0 0zm-16.97 -25.45l1.27 1.27c-0.09,-0.09 -1.69,-0.85 -1.27,-1.27zm18.04 -62.58c9.97,10.23 15.26,25.83 23.48,37.69 11,15.86 20.37,23 32.95,35.45 35.72,35.35 71.52,29.82 91.3,40.34 -17.6,37.38 -86.33,6.28 -128.43,-62.7 -8.15,-13.35 -23.07,-35.14 -19.3,-50.78zm32.34 84.3c5.38,6.42 8.6,9.76 14.11,15.38l12.85 14.76c-34.1,-13.25 -43.4,-30.32 -60.08,-60.26 -14.75,-26.45 -22.63,-56.67 -23.77,-87.52 3.84,24.36 36.69,93.52 56.89,117.64zm-24.93 -162.97c16.91,24.52 7.04,57.2 58.85,82.41 37,18 65.65,17.46 75.07,58.28 -54.85,-2.13 -101.98,-41.18 -124.97,-88.8 -11,-22.81 -19.6,-34.85 -8.95,-51.89zm137.54 154.42l1.66 25.69c-44.5,1.28 -84.53,-25.76 -108.22,-57.05 -12.93,-17.08 -54.76,-81.5 -47.95,-109.92 5.9,5.18 0.36,-2.68 6.15,7.4l2.66 5.96c4.92,12.23 3.83,20.92 15.58,39.2 38.83,60.39 65.76,63.55 117.63,82.19 11.72,4.21 6.8,2.46 12.49,6.53zm-187.66 -125.9c-22.69,65.46 -4.05,54.46 1.63,108.83 11.57,12.31 19.8,43.83 57.4,88.04l30.67 41.63c11.78,15.26 24.39,27.96 33.29,44.13 12.98,16.46 42.04,49.99 52.71,73.49 11.08,24.4 27.24,84.1 7.89,106.32 1.91,64.58 -87.35,146.36 -143.16,170.65 -60.04,26.14 -123.59,44.16 -194.11,40.67 -28.1,-1.38 -39.32,-8.83 -44.18,-33.79 23.17,-25.44 81.37,-6.16 143.07,-93.6 63.05,-89.36 11.3,-153.46 5.2,-184.6 -7.65,-5.44 -11.59,-11.05 -18.28,-20.65 -23.21,-33.26 -21.03,-18.32 -41.59,-43.41 -31.34,-38.24 -83.9,-76.07 -99.02,-109.99 -22.47,-25.24 -50.22,-80.18 -52.19,-126.67 -7.66,-22.19 -3.16,-55.47 2.11,-79.63l15.43 -47.65c0.29,-0.49 4.08,-6.34 5.31,-8.14l4.23 -5.39c2.02,-13.2 58.22,-85.94 70.95,-91.78 10.14,-4.65 31.89,0.38 46.13,-0.57 113.31,-7.55 150.24,-16.69 147.67,60.04 -0.56,34.59 0.21,44.33 5.55,76.33 -14.62,14.11 -26.35,24.09 -36.71,35.74zm-296.55 -52.7c-29.62,17.08 -166.63,56 -145.75,-13.87 28.09,4.18 23.02,18.95 72.5,19.11 45.61,0.16 36.29,-4.24 58,-7.11l15.25 1.87zm-133.96 -21.21c8.07,-12.72 9.19,-11.11 26.82,-23.12 30.81,9.07 38.12,22.58 80.63,21.46 37.24,-0.98 53.25,-15.39 78.7,-19.5 -10.81,20.97 -61.94,34.78 -86.07,39.34 -29.11,5.51 -78.78,10.55 -100.08,-18.18zm64.99 -51.05c70.75,24.73 69.94,15.14 143.3,-0.78 -13.22,25.69 -52.05,38.95 -80.51,42.33 -23.35,2.78 -56.83,0.98 -78.46,-8.84 -11.49,-5.21 -7.95,-3.17 -14.69,-12.37l30.36 -20.34zm7.52 -1.16c5.8,-8.8 0.04,-2.68 7.03,-9.23 4.08,-3.83 2.46,-2.66 7.82,-5.12 15.75,-7.26 108.23,-10.37 145.22,-16.39 -4.37,9.4 -2.56,9.52 -15.77,19.05 -39.93,28.78 -104.11,25.75 -144.3,11.69zm326.4 -141.32c16.68,-13.42 53.14,-19.54 73.68,-21.88 28.93,-3.31 54.12,0.68 80.53,8.34 35.38,10.26 28.88,70.16 24.92,102.4 -1.34,10.86 -2.53,23.36 -10.39,32.5 -1.54,16.95 -5.99,22.72 -14.43,34.73 -16.6,23.6 -43.51,53.48 -72.59,63.96 -21.91,-44.22 19.15,-113.08 -32.32,-134.3 -51.92,-21.41 -114.98,3.39 -164.09,-6.19 3.74,-10.49 86.03,-78.99 114.69,-79.56zm77.48 414.1c10.29,6.9 21.09,15.42 30.69,24.45 23.63,22.26 83.71,27.98 110.34,19.04 24.04,-8.05 20.99,-29.47 17.73,-49.48 -2.42,-14.89 -1.95,-31.32 -5.2,-41.53 -4.01,-12.57 -8.18,-16.97 -15.84,-26.59 -10.33,-12.99 -12.99,-13.55 -28.35,-18.3 -47.44,-14.7 -83.61,-39.56 -88.17,-94.23 13.42,-3.58 19,-9.73 28.71,-17.94 60.26,-50.9 68.95,-79.82 68.96,-164.57 0.01,-52.89 -4.16,-62.54 -26.57,-70.99 -57.59,-21.74 -105.57,-17.05 -160.74,2.65l-84.32 42.93c-102.12,86.58 -48.93,73.71 -211.81,85.08 -33.84,2.37 -68.84,28.15 -94.5,49.71 -12.53,10.53 -41.34,31.43 -47.34,46.24 -13.41,33.11 10.41,49.37 37.23,54.99 65.32,13.7 137.96,-28.29 155.33,-32.34 -33,68.78 -3.13,168.43 34.05,228.94l52.48 66.28c0.61,0.62 1.51,1.5 2.11,2.13 37.63,39.31 71.53,63.9 99.16,100.19 0.54,0.71 1.27,1.73 1.82,2.43 7.98,10.23 7.15,6.19 14.17,19.76 49.18,95.16 18.89,151.79 -62.59,213.55 -30.53,23.14 -58.27,30.93 -74.82,-12.5 -16.39,-43.02 18.08,-129.55 -27.13,-151.03 -13.73,-6.53 -40.1,-3.87 -51.58,1.49l-21.42 16.76c-15.64,16.81 -2.05,28.97 -47.7,41.37 -21.6,5.86 -29.21,8.71 -36.82,26.8 -23.04,54.71 -5.1,120.53 45.99,148.15 45.14,24.4 77.13,21.13 128.49,28.44 37.21,5.3 135.71,-1.98 175.42,-9.03 31.61,-5.62 99.73,-33.69 129.22,-57.42 28.56,-22.98 75.09,-62.46 90.12,-96.51 3.79,-8.59 4.45,-12.28 8.54,-21.15 17.35,-37.67 19.52,-94.68 8.84,-134.76 -7.17,-26.89 -32.28,-60.35 -47.79,-79.46 -11.54,-14.24 -102.61,-128.17 -106.71,-143.55z"/>
   <path fill="black" d="M1035.39 1524.87c-31.58,52.47 -56.33,99.23 -154.37,64.32 -90.16,-32.11 -94.69,-134.23 -112.2,-239.84 -19.68,-118.6 68.47,-192.7 146.84,-180.58 29.51,44.01 6.38,128.52 -4.13,186.46 -6.44,35.48 -37.4,157.06 2.78,175.52 42.35,3.92 65.24,-1.34 91,-23.39 44.22,-37.83 46.57,-123.99 46.41,-180.29 -0.06,-22.65 3.06,-82.38 7.25,-101.28 6.6,-29.83 16.54,-62.04 56.57,-53.46 41.93,8.99 63.2,55.1 75.3,90.86 47.4,140.08 9.67,469.75 -115.23,581.77 -26.11,23.41 -42.94,26.66 -84.96,26.45 -40.47,-0.19 -67.33,1.88 -100.21,-11.54 -24.04,-9.82 -45.31,-38.06 -28.93,-67.96 19.38,-6.52 38.04,9.15 54.75,16.89 17.28,8 33.26,17.92 53.75,19.12 79.81,4.67 97.53,-132.28 102.67,-191.01 5.16,-58.97 9.87,-112.73 -37.29,-112.04zm-286.49 -218.87c0,62 0.78,40.71 12.49,93.55 12.17,54.86 5.45,104.07 47.41,160.44 17.62,23.68 44.19,39.78 74.22,48.78 128.73,38.57 144.03,-49.84 167.01,-65.23 16.27,33.91 1.85,117.47 -4.73,156.47 -4.24,25.15 -11.46,47.41 -20.71,68.35 -3.93,8.89 -8.64,19.54 -15.73,26.69 -45.56,45.93 -102.81,-26.69 -141.2,-26.69 -38.09,0 -45.88,76.97 9.71,104.81 41.57,20.82 80.44,18.2 126,18.2 99.61,0 155.93,-118.35 182.97,-198.77l26.02 -101.24c20.29,-105.15 34.35,-327.33 -44.54,-407.41 -51.32,-52.1 -116.16,-39.88 -126.55,41.17l-8.35 131.63c-0.89,43.93 -5.36,88.56 -23.39,116.59 -17.92,27.85 -52.44,49.49 -90.98,40.51 -25.57,-109.75 89.73,-364.8 -16.97,-364.8 -78.06,0 -152.68,66.25 -152.68,156.95z"/>
   <path fill="#E7B155" d="M2400.74 1358.78c1.56,-14.47 -1.9,-12.98 0.75,-31.33 -20.18,-0.19 -16.17,-3.98 -31.95,-8.06 -5.66,12.48 8.45,3.86 -16.75,11.03 -12.06,14.58 -1.61,34.86 -37.51,74.6 -89.19,98.71 -123.71,84.57 -171.03,108.88 -12.21,6.27 -25.38,15.35 -39.41,17.74 4.86,-16.41 -3.92,-6.27 15.63,-16.3l53.36 -31.21c34.99,-21.42 97.32,-79.55 111.06,-118.07 11.65,-32.63 9.5,-67.43 -2.54,-94.33 -35.29,-8.01 -2.39,8.05 -39.8,-7.03l-4.54 -1.55c-14.8,-4.57 -59.09,-11.56 -70.45,-5.04 6.1,31.14 57.85,95.24 -5.2,184.6 -61.7,87.44 -119.9,68.16 -143.07,93.6 4.86,24.96 16.08,32.41 44.18,33.79 70.52,3.49 134.07,-14.53 194.11,-40.67 55.81,-24.29 145.07,-106.07 143.16,-170.65z"/>
   <path fill="#212121" d="M252.67 1524.45l-9.22 14.56c-7.78,17.38 -5.46,26.98 -21.39,41.76 -15.56,14.45 -44.01,23.61 -68.3,14.5 -93.77,-35.17 -79.44,-354.92 -79.8,-437.73 -0.5,-112.53 -12.44,-364.67 67.48,-450.6 55.06,-59.21 98.58,11.54 111.23,24.49 27.92,-11.52 36.37,-25.92 83.71,-36.97 35.23,-8.22 77.97,-13.74 115.87,-7.7 137.17,21.87 208.48,114.35 242.99,244.27 18.28,68.82 25.58,146.8 21.06,221.15 -9.93,163.07 -68.52,440.81 -285.51,445 -70.1,1.35 -121.13,-37.35 -175.02,-70.96 -0.7,-0.44 -2.02,-1.27 -3.1,-1.77zm-195.1 -523.86c0,101.81 -9.69,378.31 18.62,490.4 18.59,73.59 60.66,165.5 151.11,107.77 8.37,-5.34 12.36,-11.03 17.93,-20.24 6.73,-11.13 8.57,-17.36 11.68,-30.74 59.82,40.06 70.46,41.02 125.19,57.2 37.26,11.01 40.35,6.43 91.12,6.43 18.73,0 -0.97,0.43 9.07,-3.65 72.28,-29.34 91.22,-31.31 146.05,-104.2 11.24,-14.94 12.36,-16.57 21.66,-33.48 73.57,-133.64 99.33,-301.13 78.37,-448.97 -15.49,-109.29 -44.14,-222.08 -136.99,-291.4 -10.44,-7.79 -19.07,-13.72 -29.61,-21.29 -32.91,-23.64 -87.35,-34.72 -131.02,-34.39 -48.82,0.36 -61.09,-12.56 -135.12,17.45 -73.11,29.64 -24.36,13.44 -67.48,-9.96 -26.92,-14.61 -60.07,-16.97 -85.12,1.57 -72.09,53.35 -85.46,235.21 -85.46,317.5z"/>
   <path fill="#2A2A2A" d="M1535.86 1276.5c-41.25,17.25 -69.68,30.83 -97,70.77 -26.41,38.61 -27.24,90.04 -21.74,138.85 4.11,36.49 26.95,116.32 -12.98,131.44 -47.93,18.15 -83.01,-12.4 -99.96,-60.19 -19.53,-55.06 -18.08,-243.61 -2.74,-301.84 33.13,-125.76 115.88,-94.25 136.26,-70.04 18.5,21.96 7.09,47.25 43.89,30.8 270.95,-121.07 276.85,283.47 205.51,379.02 -19.01,25.46 -58.71,35.46 -91.98,22.47 -44.81,-17.49 -45.22,-67.55 -35.89,-121.57 8.73,-50.55 87.38,-266.01 -23.37,-219.71zm-176.22 360.36c75.93,0 84.83,-10.02 84.83,-76.35 0,-72.7 -28.99,-102.11 -1.08,-183.48 20.6,-60.11 108.77,-92.24 111.35,-92.24 41.63,0 18.3,75.42 15.25,87.37 -16.14,63.34 -56.89,196.45 -10.19,242.67 6.84,6.78 19.07,14.18 28.12,18.54 28.75,13.88 64.11,9.92 90.84,-8.21 29.72,-20.14 42.23,-47.99 52.46,-83.27 23.3,-80.39 12.83,-255.59 -44.67,-312.58l-22.78 -23.87c-33.38,-33.37 -112.22,-32.53 -159.06,-17.35 -16.63,5.4 -16.42,11.36 -39.04,11.86 -3.29,-14.11 -2.86,-11.84 -12.19,-21.74l-12.14 -13.31c-21.47,-21.02 -74.77,-19.96 -98.61,-7.31 -72.15,38.26 -67.27,167.18 -67.75,229.17 -0.47,59.33 -13.53,75.36 6.57,154.28 9.76,38.31 33.87,95.82 78.09,95.82z"/>
   <path fill="#2A2A2A" d="M239.95 1017.55l8.38 -152.8c53.11,-109.87 226.81,-140.04 276.44,-17.53 22.36,55.2 33.67,108.98 33.3,174.54 -0.64,116.56 17.22,228.71 -37.55,352.75 -34.11,77.22 -98.26,85.2 -175.16,63.6 -38.67,-10.86 -62.82,-18.17 -87.57,-43.92 -15.5,-16.13 -13.92,-20.44 -13.67,-49.94l-4.17 -326.7zm119.38 -260.32c-39.05,8.54 -67.4,27.41 -87.1,46.44 -8.25,7.96 -6.69,8.02 -13.6,16.58 -17.45,21.64 -31.06,39.77 -31.85,69.82 -4.28,162.8 1.11,298.29 1.01,454.09 -0.01,29.52 -2.47,37.95 12.96,58.62 32.86,44.04 147.34,68.97 205.46,57.82 138.21,-26.51 132.35,-287.89 129.06,-396.39 -4.81,-158.75 -24.14,-348.92 -215.94,-306.98z"/>
   <path fill="#050402" d="M2221.32 1470.68c1.24,-13.68 2.11,-12.33 14.12,-18.04 -4.86,18.49 -5.21,8.56 -14.12,18.04zm30.31 -34.51l0.25 16.76c-10.43,-2.41 -8.02,-1.11 -13.32,-7.88 3.52,-2.77 11.92,-8.08 13.07,-8.88zm14.04 -18.28c6.61,10.56 6.38,10.83 2.27,24 -0.08,-0.1 -7.85,-4.81 -8.32,-13.23 -0.62,-11.06 -1.86,-2.12 6.05,-10.77zm23.51 -6.1c0.53,21.31 2.04,0.2 -5.26,10.01 -2.31,-0.82 -6.62,-9.08 -11.13,-14.16l10.08 -8.84c5.2,6.23 5.74,-10.15 6.31,12.99zm7.78 -41.65c10.68,12.69 13.69,21.24 9.24,34.35 -11.61,-8.15 -23.16,-20.78 -9.24,-34.35zm8.48 -30.28c17.28,9.34 18.35,27.33 18.74,40.71 -10.21,-4.33 -6.12,-1.33 -13.13,-8.2 -18.55,-18.18 -9.6,-26.22 -5.61,-32.51zm0 -32.45c16.13,3.87 25.21,18.69 33.1,32.56l-4.37 15.97c-28.02,-36.07 -37.01,-29.4 -28.73,-48.53zm35.18 12.56c-2.9,-4.33 -14.72,-16.09 -24.22,-20.75 -25.2,-12.34 -12.6,4.36 -20.73,-28.3 23.14,3.09 32.56,14.06 46.57,27.19l-1.62 21.86zm-51.73 -59.98l-7.04 -20.01c14,-0.22 22.48,3.39 32.63,10.27 13.85,9.4 17.67,11.36 20.19,27.1 -14.73,-8.52 -25.22,-16.92 -45.78,-17.36zm27.26 -23.41c-12.48,0.13 -13.12,-3.4 -27.84,-7.14 -18.38,-4.68 -17.07,1.65 -20.28,-15.82 31.49,7.65 27.1,8.42 48.12,22.96zm-54.76 -51.26c-18.25,-0.03 -14.66,2.91 -22.64,-9.77 12.31,-0.56 18.05,-1.28 22.64,9.77zm-28.05 -23.55l1.27 1.27c-0.09,-0.08 -1.69,-0.84 -1.27,-1.27zm-12.72 -8.48l1.26 1.27c-0.08,-0.08 -1.68,-0.84 -1.26,-1.27zm-67.58 -51.22c-1.83,-20.78 -0.48,-2.19 5.46,-7.92l-1.5 15.69c-4.07,-4.37 -3.09,2.04 -3.96,-7.77zm-17.25 -2.19c-13.12,-16.48 -8.77,-23.85 0.02,-35.38 3.45,8.14 7.25,11.3 7.94,17.06 1.61,13.34 -7.1,17.31 -7.96,18.32zm-26.03 -62.39c14.28,6.11 5.65,0.73 16.7,14.05 -2.5,8.1 -3.01,9.37 -5.75,17.84 -5.48,16.96 1.51,9.19 -10.73,15.63 -5.17,-10.5 -3.77,8.31 -4.32,-20.89l4.1 -26.63zm-32.05 9.76c0,-4.41 4,-15.71 6.48,-21.89 6.34,-15.75 1.72,-9.61 13.43,-16.82 12.84,13.61 10.54,17.48 -4.24,59.29 -6.93,-4.34 -15.67,-8.44 -15.67,-20.58zm-21.44 -24.55c2.76,-27.49 14.57,-33.22 29.72,-48.26l8.88 15.14c-6.95,11.65 -0.51,1.26 -6.45,9.7l-3.91 5.29c-13.92,19.54 -10.63,21.69 -16.58,31.71 -10.19,-7.53 -5.39,-3.61 -11.66,-13.58zm-10.17 -25.45c-0.95,-21.4 -1.56,-25.14 10.31,-37.81 4.63,-4.95 18.7,-17.58 25.62,-10.59 13.31,13.45 -7.74,22.4 -12.97,27.43 -18.08,17.39 2.4,12.25 -22.96,20.97zm-0.88 -42.59c1.65,-20.18 10.71,-29.74 35.53,-40.13 0.06,16.14 -1.65,23.47 -35.53,40.13zm7.34 -39.65c7.11,-19.67 20.75,-29.95 38.81,-39.67 -3.3,14.05 -8.7,39.94 -38.81,39.67zm28.64 -48.76c5.64,-14.24 10.19,-19.15 26.69,-24.31 -7,17.3 -3.97,19.77 -26.69,24.31zm21.89 -38.39c-30.75,25.65 -67.43,68.31 -68.45,125.56 -0.68,44.25 1.52,51.14 20,86.07 7.21,13.62 13.34,21.14 23.41,31.55 9.29,9.59 19.08,14.48 28.09,27.09 13.98,-1.22 26.8,16.13 57.56,27.4 29.92,10.96 33.46,18.89 50.28,38.63 17.75,20.82 62.55,75.27 68.37,107.57 12.04,26.9 14.19,61.7 2.54,94.33 -13.74,38.52 -76.07,96.65 -111.06,118.07l-53.36 31.21c-19.55,10.03 -10.77,-0.11 -15.63,16.3 14.03,-2.39 27.2,-11.47 39.41,-17.74 47.32,-24.31 81.84,-10.17 171.03,-108.88 35.9,-39.74 25.45,-60.02 37.51,-74.6 0.04,-88.38 -37.16,-108.39 -75.49,-151 -27.01,-13.54 -79.56,-51.32 -98.42,-73.29 -18.74,-21.83 -59.19,-77.7 -66.39,-100.43 -9.86,-13.33 -15.13,-32.37 -18.37,-49.32 -1.86,-9.78 -5.33,-56.72 4.99,-58.3 1.21,-23.6 14.96,-48.16 28.38,-61.03 28.86,-49.37 62.5,-52.65 67.37,-78.29 -25.71,3.01 -40,39.54 -91.77,69.1z"/>
   <path fill="#C65505" d="M1983.56 816.58c10.61,8.67 6.31,5.81 24.73,6.19 11.12,0.23 22.9,-0.12 34.2,0.02 26.95,0.32 38.41,0.04 60.6,5.07 51.77,-29.56 66.06,-66.09 91.77,-69.1 -4.87,25.64 -38.51,28.92 -67.37,78.29l117.24 6.25c-0.65,-11.29 -2.89,-15.6 -3.32,-29.38 -0.67,-21.08 2.44,-22.61 6.9,-29.65 2.57,-76.73 -34.36,-67.59 -147.67,-60.04 -14.24,0.95 -35.99,-4.08 -46.13,0.57 -12.73,5.84 -68.93,78.58 -70.95,91.78z"/>
   <path fill="#DB9442" d="M2167.56 1258.11c11.36,-6.52 55.65,0.47 70.45,5.04l4.54 1.55c37.41,15.08 4.51,-0.98 39.8,7.03 -5.82,-32.3 -50.62,-86.75 -68.37,-107.57 -16.82,-19.74 -20.36,-27.67 -50.28,-38.63 -30.76,-11.27 -43.58,-28.62 -57.56,-27.4 -13.83,-4.52 -29.4,-3.22 -50.22,-5.49 -14.23,-1.56 -32.74,-6.78 -47.25,-8.58 15.12,33.92 67.68,71.75 99.02,109.99 20.56,25.09 18.38,10.15 41.59,43.41 6.69,9.6 10.63,15.21 18.28,20.65z"/>
   <path fill="#C6570B" d="M2354.29 750.26l-2.63 -8.45c-15.47,4.38 -0.1,7.59 -23.65,6.98l-3.87 -18.77 -18.7 -0.96c-28.56,-33.49 -1.06,-16.21 -35.81,-40.47 -13.6,-9.49 -9.58,-12.82 -16.56,-21.51l-21.94 -15.02c-26.96,14.07 -60.43,10.94 -32.28,-23.38l-13.3 0.22c-28.66,0.57 -110.95,69.07 -114.69,79.56 49.11,9.58 112.17,-15.22 164.09,6.19 51.47,21.22 10.41,90.08 32.32,134.3 29.08,-10.48 55.99,-40.36 72.59,-63.96 8.44,-12.01 12.89,-17.78 14.43,-34.73z"/>
   <path fill="#D68638" d="M2112.49 1005.7c7.2,22.73 47.65,78.6 66.39,100.43 18.86,21.97 71.41,59.75 98.42,73.29 4.24,-11.21 -0.68,-7.19 14.39,-5.05 23.97,3.4 -7.82,2.34 13.28,5.3 11.04,1.54 18.93,-1.74 35.17,-0.7 -8.9,-16.17 -21.51,-28.87 -33.29,-44.13l-30.67 -41.63c-37.6,-44.21 -45.83,-75.73 -57.4,-88.04l-2.4 7.72c-28.3,-6.83 -6.61,-2.95 -28.89,3.76 -1.42,-1.2 0.69,-1.28 -6.36,-6.31 -7.56,-5.39 1.82,-1.12 -8.42,-4.52 -3.8,-1.26 -17.49,-2.37 -21.92,-2.71 -17.69,-1.38 -15.28,-2.16 -38.3,2.59z"/>
   <path fill="#CC6B23" d="M1956.48 957.39c21.85,-0.84 23.37,2.26 34.25,1.41 12.79,-1 31.54,-2.96 43.91,-5.38 1.02,-57.25 37.7,-99.91 68.45,-125.56 -22.19,-5.03 -33.65,-4.75 -60.6,-5.07 -11.3,-0.14 -23.08,0.21 -34.2,-0.02 -18.42,-0.38 -14.12,2.48 -24.73,-6.19l-4.23 5.39c-1.23,1.8 -5.02,7.65 -5.31,8.14l-15.43 47.65c-5.27,24.16 -9.77,57.44 -2.11,79.63z"/>
   <path fill="#CF7329" d="M2099.11 898.08c-10.32,1.58 -6.85,48.52 -4.99,58.3 3.24,16.95 8.51,35.99 18.37,49.32 23.02,-4.75 20.61,-3.97 38.3,-2.59 4.43,0.34 18.12,1.45 21.92,2.71 10.24,3.4 0.86,-0.87 8.42,4.52 7.05,5.03 4.94,5.11 6.36,6.31 22.28,-6.71 0.59,-10.59 28.89,-3.76l2.4 -7.72c-5.68,-54.37 -24.32,-43.37 -1.63,-108.83l-15.07 5.52c-1.26,0.39 -2.32,0.77 -3.55,1.09l-19.32 -1.23c-38.47,-18.7 -5.77,-3.93 -33.86,-5.71 -7.28,-0.47 -19.57,-8.12 -33.57,-4.8 -1.15,0.27 -2.37,0.83 -3.37,1.16 -1.01,0.34 -2.42,1.26 -3.22,1.59l-6.08 4.12z"/>
   <path fill="#A9442D" d="M2185.55 628.9l13.3 -0.22c22.34,-5.05 59.17,-11.14 32.28,23.38l21.94 15.02c6.98,8.69 2.96,12.02 16.56,21.51 34.75,24.26 7.25,6.98 35.81,40.47l18.7 0.96c1.53,-22.02 1.66,-30.54 26.59,-25.04l0.93 36.83 2.63 8.45c7.86,-9.14 9.05,-21.64 10.39,-32.5 3.96,-32.24 10.46,-92.14 -24.92,-102.4 -26.41,-7.66 -51.6,-11.65 -80.53,-8.34 -20.54,2.34 -57,8.46 -73.68,21.88z"/>
   <path fill="#D48335" d="M1956.48 957.39c1.97,46.49 29.72,101.43 52.19,126.67 14.51,1.8 33.02,7.02 47.25,8.58 20.82,2.27 36.39,0.97 50.22,5.49 -9.01,-12.61 -18.8,-17.5 -28.09,-27.09 -10.07,-10.41 -16.2,-17.93 -23.41,-31.55 -18.48,-34.93 -20.68,-41.82 -20,-86.07 -12.37,2.42 -31.12,4.38 -43.91,5.38 -10.88,0.85 -12.4,-2.25 -34.25,-1.41z"/>
   <path fill="#DC9A46" d="M2352.79 1330.42c25.2,-7.17 11.09,1.45 16.75,-11.03 15.78,4.08 11.77,7.87 31.95,8.06 -2.65,18.35 0.81,16.86 -0.75,31.33 19.35,-22.22 3.19,-81.92 -7.89,-106.32 -10.67,-23.5 -39.73,-57.03 -52.71,-73.49 -16.24,-1.04 -24.13,2.24 -35.17,0.7 -21.1,-2.96 10.69,-1.9 -13.28,-5.3 -15.07,-2.14 -10.15,-6.16 -14.39,5.05 38.33,42.61 75.53,62.62 75.49,151z"/>
   <path fill="#C9641A" d="M2127.49 837.05c-13.42,12.87 -27.17,37.43 -28.38,61.03l6.08 -4.12c0.8,-0.33 2.21,-1.25 3.22,-1.59 1,-0.33 2.22,-0.89 3.37,-1.16 14,-3.32 26.29,4.33 33.57,4.8 28.09,1.78 -4.61,-12.99 33.86,5.71l19.32 1.23c1.23,-0.32 2.29,-0.7 3.55,-1.09l15.07 -5.52c10.36,-11.65 22.09,-21.63 36.71,-35.74 -5.34,-32 -6.11,-41.74 -5.55,-76.33 -4.46,7.04 -7.57,8.57 -6.9,29.65 0.43,13.78 2.67,18.09 3.32,29.38l-117.24 -6.25z"/>
   <path fill="#F3D4A2" d="M1841.23 1438.72c-18.44,115.16 94.15,122.6 175.51,129.88 -11.19,-17.32 -34.78,-10.3 -59.18,-20.7 -58.85,-25.08 -79.38,-110.77 -116.33,-109.18z"/>
   <path fill="#F3D4A2" d="M1973.77 1336.52c-48.56,90.92 21.06,170.66 48.99,181.56 -4.99,-16.4 -3.13,-6.22 -11.74,-19.64 -44.97,-70.06 10.18,-146.87 -37.25,-161.92z"/>
   <path fill="#F3AE62" d="M2406.47 1047.93l-1.66 -25.69c-5.69,-4.07 -0.77,-2.32 -12.49,-6.53 -51.87,-18.64 -78.8,-21.8 -117.63,-82.19 -11.75,-18.28 -10.66,-26.97 -15.58,-39.2l-2.66 -5.96c-5.79,-10.08 -0.25,-2.22 -6.15,-7.4 -6.81,28.42 35.02,92.84 47.95,109.92 23.69,31.29 63.72,58.33 108.22,57.05z"/>
   <path fill="#F3AE62" d="M1821.27 791.72c6.74,9.2 3.2,7.16 14.69,12.37 21.63,9.82 55.11,11.62 78.46,8.84 28.46,-3.38 67.29,-16.64 80.51,-42.33 -73.36,15.92 -72.55,25.51 -143.3,0.78l-30.36 20.34z"/>
   <path fill="#F3D4A2" d="M1786.64 822.43c21.3,28.73 70.97,23.69 100.08,18.18 24.13,-4.56 75.26,-18.37 86.07,-39.34 -25.45,4.11 -41.46,18.52 -78.7,19.5 -42.51,1.12 -49.82,-12.39 -80.63,-21.46 -17.63,12.01 -18.75,10.4 -26.82,23.12z"/>
   <path fill="#CB7D63" d="M1859.15 770.22c40.19,14.06 104.37,17.09 144.3,-11.69 13.21,-9.53 11.4,-9.65 15.77,-19.05 -36.99,6.02 -129.47,9.13 -145.22,16.39 -5.36,2.46 -3.74,1.29 -7.82,5.12 -6.99,6.55 -1.23,0.43 -7.03,9.23z"/>
   <path fill="#BE5919" d="M1936.41 1446.56l-20.27 -69.74c-10.53,9.97 -24.62,13.71 -42.59,20.12 38.97,24.01 46.31,91.4 75.01,117.53 10.94,9.97 26.05,16.27 44.55,21.55l-34.8 -40.07c-9.83,-12.67 -22.26,-32.6 -21.9,-49.39z"/>
   <path fill="#C9785B" d="M2401.19 1008.51c-9.42,-40.82 -38.07,-40.28 -75.07,-58.28 -51.81,-25.21 -41.94,-57.89 -58.85,-82.41 -10.65,17.04 -2.05,29.08 8.95,51.89 22.99,47.62 70.12,86.67 124.97,88.8z"/>
   <path fill="#F0A43A" d="M2007.47 1547.26c-18.54,-7.69 -35.51,-5.24 -54.55,-19.99 -49.79,-38.58 -48.94,-123.01 -97.85,-122.86l-10.49 20.36c9.58,15.87 13.52,6.98 36.98,38.03 10.94,14.46 19.96,27 30.95,41.06 19.34,24.76 72.83,62.01 94.96,43.4z"/>
   <path fill="#F0A43A" d="M1936.41 1446.56c18.64,11.07 23.41,61.31 73.59,82.6 -15.97,-27.97 -42.24,-45.48 -55.53,-84.87 -11.3,-33.52 -9.31,-87.7 8.07,-105.1 -61.44,-16.14 -25.13,85.99 -26.13,107.37z"/>
   <path fill="#F3D4A2" d="M2283.34 984.18c-8.22,-11.86 -13.51,-27.46 -23.48,-37.69 -3.77,15.64 11.15,37.43 19.3,50.78 42.1,68.98 110.83,100.08 128.43,62.7 -19.78,-10.52 -55.58,-4.99 -91.3,-40.34 -12.58,-12.45 -21.95,-19.59 -32.95,-35.45z"/>
   <path fill="#E4D6C7" d="M1920.6 843.64l-15.25 -1.87c-21.71,2.87 -12.39,7.27 -58,7.11 -49.48,-0.16 -44.41,-14.93 -72.5,-19.11 -20.88,69.87 116.13,30.95 145.75,13.87z"/>
   <path fill="#D7D0C7" d="M2319.16 1060.93l-12.85 -14.76c-5.51,-5.62 -8.73,-8.96 -14.11,-15.38 -20.2,-24.12 -53.05,-93.28 -56.89,-117.64 1.14,30.85 9.02,61.07 23.77,87.52 16.68,29.94 25.98,47.01 60.08,60.26z"/>
   <path fill="black" d="M2198.85 628.68c-28.15,34.32 5.32,37.45 32.28,23.38 26.89,-34.52 -9.94,-28.43 -32.28,-23.38z"/>
   <path fill="black" d="M2324.14 730.02l3.87 18.77c23.55,0.61 8.18,-2.6 23.65,-6.98l-0.93 -36.83c-24.93,-5.5 -25.06,3.02 -26.59,25.04z"/>
   <path fill="#F3AC5E" d="M2056.27 1022.7c6.27,9.97 1.47,6.05 11.66,13.58 5.95,-10.02 2.66,-12.17 16.58,-31.71l3.91 -5.29c5.94,-8.44 -0.5,1.95 6.45,-9.7l-8.88 -15.14c-15.15,15.04 -26.96,20.77 -29.72,48.26z"/>
   <path fill="#F3D4A2" d="M2077.71 1047.25c0,12.14 8.74,16.24 15.67,20.58 14.78,-41.81 17.08,-45.68 4.24,-59.29 -11.71,7.21 -7.09,1.07 -13.43,16.82 -2.48,6.18 -6.48,17.48 -6.48,21.89z"/>
   <path fill="#CB7153" d="M2046.1 997.25c25.36,-8.72 4.88,-3.58 22.96,-20.97 5.23,-5.03 26.28,-13.98 12.97,-27.43 -6.92,-6.99 -20.99,5.64 -25.62,10.59 -11.87,12.67 -11.26,16.41 -10.31,37.81z"/>
   <path fill="#CB7153" d="M2340.62 1319.97l1.62 -21.86c-14.01,-13.13 -23.43,-24.1 -46.57,-27.19 8.13,32.66 -4.47,15.96 20.73,28.3 9.5,4.66 21.32,16.42 24.22,20.75z"/>
   <path fill="#F3AC5E" d="M2288.89 1259.99c20.56,0.44 31.05,8.84 45.78,17.36 -2.52,-15.74 -6.34,-17.7 -20.19,-27.1 -10.15,-6.88 -18.63,-10.49 -32.63,-10.27l7.04 20.01z"/>
   <path fill="#F3AE62" d="M2334.17 1355.94l4.37 -15.97c-7.89,-13.87 -16.97,-28.69 -33.1,-32.56 -8.28,19.13 0.71,12.46 28.73,48.53z"/>
   <path fill="#E4D6C7" d="M2105.66 1064.12c0.55,29.2 -0.85,10.39 4.32,20.89 12.24,-6.44 5.25,1.33 10.73,-15.63 2.74,-8.47 3.25,-9.74 5.75,-17.84 -11.05,-13.32 -2.42,-7.94 -16.7,-14.05l-4.1 26.63z"/>
   <path fill="#F3AC5E" d="M2045.22 954.66c33.88,-16.66 35.59,-23.99 35.53,-40.13 -24.82,10.39 -33.88,19.95 -35.53,40.13z"/>
   <path fill="#E7CA9A" d="M2052.56 915.01c30.11,0.27 35.51,-25.62 38.81,-39.67 -18.06,9.72 -31.7,20 -38.81,39.67z"/>
   <path fill="#F3D4A2" d="M2324.18 1380.57c-0.39,-13.38 -1.46,-31.37 -18.74,-40.71 -3.99,6.29 -12.94,14.33 5.61,32.51 7.01,6.87 2.92,3.87 13.13,8.2z"/>
   <path fill="#E7CA9A" d="M2316.15 1236.58c-21.02,-14.54 -16.63,-15.31 -48.12,-22.96 3.21,17.47 1.9,11.14 20.28,15.82 14.72,3.74 15.36,7.27 27.84,7.14z"/>
   <path fill="#F3D4A2" d="M2135.79 1099.88c0.86,-1.01 9.57,-4.98 7.96,-18.32 -0.69,-5.76 -4.49,-8.92 -7.94,-17.06 -8.79,11.53 -13.14,18.9 -0.02,35.38z"/>
   <path fill="#E4D6C7" d="M2306.2 1404.49c4.45,-13.11 1.44,-21.66 -9.24,-34.35 -13.92,13.57 -2.37,26.2 9.24,34.35z"/>
   <path fill="#E4D6C7" d="M2081.2 866.25c22.72,-4.54 19.69,-7.01 26.69,-24.31 -16.5,5.16 -21.05,10.07 -26.69,24.31z"/>
   <path fill="#E7CA9A" d="M2272.79 1407.64c4.51,5.08 8.82,13.34 11.13,14.16 7.3,-9.81 5.79,11.3 5.26,-10.01 -0.57,-23.14 -1.11,-6.76 -6.31,-12.99l-10.08 8.84z"/>
   <path fill="#E6A85A" d="M2267.94 1441.89c4.11,-13.17 4.34,-13.44 -2.27,-24 -7.91,8.65 -6.67,-0.29 -6.05,10.77 0.47,8.42 8.24,13.13 8.32,13.23z"/>
   <path fill="#D5B888" d="M2261.39 1185.32c-4.59,-11.05 -10.33,-10.33 -22.64,-9.77 7.98,12.68 4.39,9.74 22.64,9.77z"/>
   <path fill="#A26154" d="M2238.56 1445.05c5.3,6.77 2.89,5.47 13.32,7.88l-0.25 -16.76c-1.15,0.8 -9.55,6.11 -13.07,8.88z"/>
   <path fill="#DAA652" d="M2221.32 1470.68c8.91,-9.48 9.26,0.45 14.12,-18.04 -12.01,5.71 -12.88,4.36 -14.12,18.04z"/>
   <path fill="#CF9452" d="M2157 1109.84l1.5 -15.69c-5.94,5.73 -7.29,-12.86 -5.46,7.92 0.87,9.81 -0.11,3.4 3.96,7.77z"/>
  </g>
  <path fill="#2B2A29" stroke="#2B2A29" stroke-width="2.36" stroke-miterlimit="22.9256" d="M1304.18 1557.37c-19.53,-55.06 -18.08,-243.61 -2.74,-301.84 33.13,-125.76 115.88,-94.25 136.26,-70.05 18.5,21.97 7.09,47.26 43.89,30.81 270.95,-121.08 276.85,283.47 205.51,379.02 -19.01,25.46 -58.7,35.46 -91.98,22.47 -44.81,-17.49 -45.22,-67.55 -35.89,-121.57 8.73,-50.55 87.38,-266.01 -23.37,-219.71 -41.25,17.25 -69.68,30.84 -97,70.77 -26.41,38.61 -27.24,90.04 -21.74,138.85 4.11,36.48 26.95,116.32 -12.98,131.44 -47.93,18.15 -83.01,-12.41 -99.96,-60.19zm140.29 3.14c0,-72.7 -28.99,-102.11 -1.08,-183.48 20.61,-60.11 108.77,-92.24 111.35,-92.24 41.63,0 18.3,75.42 15.26,87.37 -16.15,63.34 -56.9,196.45 -10.2,242.67 6.84,6.78 19.07,14.18 28.12,18.54 28.75,13.89 64.11,9.92 90.84,-8.2 29.72,-20.15 42.23,-47.99 52.45,-83.28 23.31,-80.4 12.84,-255.59 -44.66,-312.58l-22.78 -23.87c-33.38,-33.37 -112.22,-32.53 -159.06,-17.35 -16.63,5.4 -16.42,11.36 -39.04,11.86 -3.29,-14.11 -2.86,-11.84 -12.19,-21.74l-12.14 -13.31c-21.47,-21.02 -74.77,-19.96 -98.61,-7.31 -72.15,38.26 -67.27,167.18 -67.75,229.16 -0.47,59.34 -13.53,75.37 6.57,154.29 9.76,38.31 33.87,95.82 78.09,95.82 75.93,0 84.83,-10.02 84.83,-76.35z"/>
  <path fill="#7688A1" stroke="#2B2A29" stroke-width="2.36" stroke-miterlimit="22.9256" d="M1417.12 1486.12c4.11,36.48 26.95,116.32 -12.98,131.44 -47.93,18.15 -83.01,-12.41 -99.96,-60.19 -19.53,-55.06 -18.08,-243.61 -2.74,-301.84 33.13,-125.76 115.88,-94.25 136.26,-70.05 18.5,21.97 7.09,47.26 43.89,30.81 270.95,-121.08 276.85,283.47 205.51,379.02 -19.01,25.46 -58.7,35.46 -91.98,22.47 -44.81,-17.49 -45.22,-67.55 -35.89,-121.57 8.73,-50.55 87.38,-266.01 -23.37,-219.71 -41.25,17.25 -69.68,30.84 -97,70.77 -26.41,38.61 -27.24,90.04 -21.74,138.85zm27.35 74.39c0,-72.7 -28.99,-102.11 -1.08,-183.48 20.61,-60.11 108.77,-92.24 111.35,-92.24 41.63,0 18.3,75.42 15.26,87.37 -16.15,63.34 -56.9,196.45 -10.2,242.67 6.84,6.78 19.07,14.18 28.12,18.54 28.75,13.89 64.11,9.92 90.84,-8.2 29.72,-20.15 42.23,-47.99 52.45,-83.28 23.31,-80.4 12.84,-255.59 -44.66,-312.58l-22.78 -23.87c-33.38,-33.37 -112.22,-32.53 -159.06,-17.35 -16.63,5.4 -16.42,11.36 -39.04,11.86 -3.29,-14.11 -2.86,-11.84 -12.19,-21.74l-12.14 -13.31c-21.47,-21.02 -74.77,-19.96 -98.61,-7.31 -72.15,38.26 -67.27,167.18 -67.75,229.16 -0.47,59.34 -13.53,75.37 6.57,154.29 9.76,38.31 33.87,95.82 78.09,95.82 75.93,0 84.83,-10.02 84.83,-76.35z"/>
  <path fill="#7688A1" stroke="#2B2A29" stroke-width="2.36" stroke-miterlimit="22.9256" d="M1417.12 1486.12c4.11,36.48 26.95,116.32 -12.98,131.44 -47.93,18.15 -83.01,-12.41 -99.96,-60.19 -19.53,-55.06 -18.08,-243.61 -2.74,-301.84 33.13,-125.76 115.88,-94.25 136.26,-70.05 18.5,21.97 7.09,47.26 43.89,30.81 270.95,-121.08 276.85,283.47 205.51,379.02 -19.01,25.46 -58.7,35.46 -91.98,22.47 -44.81,-17.49 -45.22,-67.55 -35.89,-121.57 8.73,-50.55 87.38,-266.01 -23.37,-219.71 -41.25,17.25 -69.68,30.84 -97,70.77 -26.41,38.61 -27.24,90.04 -21.74,138.85zm27.35 74.39c0,-72.7 -28.99,-102.11 -1.08,-183.48 20.61,-60.11 108.77,-92.24 111.35,-92.24 41.63,0 18.3,75.42 15.26,87.37 -16.15,63.34 -56.9,196.45 -10.2,242.67 6.84,6.78 19.07,14.18 28.12,18.54 28.75,13.89 64.11,9.92 90.84,-8.2 29.72,-20.15 42.23,-47.99 52.45,-83.28 23.31,-80.4 12.84,-255.59 -44.66,-312.58l-22.78 -23.87c-33.38,-33.37 -112.22,-32.53 -159.06,-17.35 -16.63,5.4 -16.42,11.36 -39.04,11.86 -3.29,-14.11 -2.86,-11.84 -12.19,-21.74l-12.14 -13.31c-21.47,-21.02 -74.77,-19.96 -98.61,-7.31 -72.15,38.26 -67.27,167.18 -67.75,229.16 -0.47,59.34 -13.53,75.37 6.57,154.29 9.76,38.31 33.87,95.82 78.09,95.82 75.93,0 84.83,-10.02 84.83,-76.35z"/>
  <g id="_2113281646016">
   <path fill="#2B2A29" d="M1922.34 1356.99c8.92,55.37 15.64,72.33 34,126.49l0.63 2.66c-28.17,-22.92 -40.26,-93.6 -34.63,-129.15z"/>
  </g>
  <path fill="none" d="M1922.34 1356.99c1.11,18.34 -3.48,23.2 3.32,42.94 2.12,6.17 10.43,34.09 10.72,39.3 0.44,7.73 12.95,34.73 17.66,42.22 0.26,0.41 2.91,4.68 2.93,4.69"/>
  <path fill="#2B2A29" stroke="#2B2A29" stroke-width="2.36" stroke-miterlimit="22.9256" d="M482.29 1607.76c72.28,-29.34 91.22,-31.31 146.05,-104.2 11.25,-14.94 12.36,-16.57 21.66,-33.48 73.57,-133.64 99.33,-301.13 78.37,-448.97 -15.49,-109.29 -44.13,-222.08 -136.99,-291.4 -10.44,-7.79 -19.07,-13.72 -29.61,-21.29 -32.91,-23.64 -87.35,-34.72 -131.02,-34.39 -48.82,0.36 -61.09,-12.56 -135.12,17.45 -73.11,29.64 -24.36,13.44 -67.48,-9.96 -26.92,-14.61 -60.07,-16.97 -85.11,1.57 -72.1,53.35 -85.47,235.21 -85.47,317.5 0,101.81 -9.68,378.31 18.62,490.4 18.59,73.59 60.66,165.5 151.11,107.77 8.37,-5.34 12.36,-11.03 17.93,-20.24 6.73,-11.14 8.57,-17.36 11.68,-30.74 59.82,40.06 70.46,41.02 125.19,57.2 37.26,11.01 40.35,6.43 91.12,6.43 18.73,0 -0.97,0.43 9.07,-3.65zm234.01 -455.58c-9.93,163.07 -68.52,440.81 -285.51,445 -70.1,1.35 -121.13,-37.35 -175.02,-70.96 -0.7,-0.44 -2.02,-1.27 -3.1,-1.77l-9.22 14.55c-7.79,17.39 -5.46,26.99 -21.39,41.77 -15.56,14.45 -44.01,23.61 -68.3,14.5 -93.77,-35.17 -79.44,-354.92 -79.8,-437.73 -0.5,-112.52 -12.44,-364.67 67.48,-450.6 55.06,-59.21 98.58,11.54 111.23,24.49 27.92,-11.52 36.37,-25.92 83.71,-36.97 35.23,-8.22 77.97,-13.74 115.87,-7.7 137.17,21.87 208.48,114.35 242.99,244.27 18.28,68.82 25.58,146.8 21.06,221.15z"/>
  <path fill="#2B2A29" stroke="#2B2A29" stroke-width="2.36" stroke-miterlimit="22.9256" d="M446.21 1460.6c138.21,-26.51 132.35,-287.89 129.06,-396.39 -4.81,-158.75 -24.14,-348.92 -215.94,-306.98 -39.05,8.54 -67.4,27.41 -87.1,46.44 -8.25,7.96 -6.69,8.02 -13.6,16.58 -17.45,21.64 -31.06,39.77 -31.85,69.82 -4.28,162.8 1.11,298.29 1.01,454.09 -0.01,29.52 -2.47,37.95 12.96,58.62 32.86,44.04 147.34,68.97 205.46,57.82zm111.86 -438.84c-0.64,116.56 17.22,228.71 -37.55,352.75 -34.11,77.22 -98.26,85.2 -175.16,63.6 -38.67,-10.86 -62.82,-18.17 -87.57,-43.92 -15.5,-16.13 -13.92,-20.44 -13.67,-49.94l-4.17 -326.7 8.38 -152.8c53.1,-109.87 226.81,-140.04 276.44,-17.53 22.36,55.2 33.67,108.98 33.3,174.54z"/>
  <path fill="#2B2A29" stroke="#2B2A29" stroke-width="2.36" stroke-miterlimit="22.9256" d="M1190.84 1263.2c47.4,140.07 9.67,469.74 -115.23,581.76 -26.11,23.41 -42.94,26.66 -84.96,26.45 -40.47,-0.19 -67.33,1.88 -100.21,-11.54 -24.04,-9.82 -45.31,-38.06 -28.93,-67.96 19.38,-6.52 38.04,9.15 54.75,16.89 17.28,8 33.26,17.92 53.75,19.12 79.81,4.67 97.53,-132.28 102.67,-191.01 5.16,-58.97 9.87,-112.73 -37.3,-112.04 -31.57,52.47 -56.32,99.23 -154.36,64.32 -90.17,-32.11 -94.69,-134.23 -112.21,-239.84 -19.67,-118.6 68.48,-192.7 146.85,-180.58 29.51,44.01 6.39,128.52 -4.13,186.46 -6.44,35.48 -37.4,157.06 2.78,175.52 42.35,3.92 65.24,-1.34 91,-23.39 44.22,-37.83 46.57,-123.99 46.41,-180.29 -0.06,-22.65 3.06,-82.38 7.25,-101.28 6.6,-29.83 16.54,-62.04 56.57,-53.46 41.93,8.99 63.2,55.1 75.3,90.87zm-157.92 93.55c-0.89,43.93 -5.36,88.56 -23.4,116.59 -17.91,27.85 -52.43,49.49 -90.97,40.51 -25.57,-109.75 89.72,-364.8 -16.97,-364.8 -78.06,0 -152.68,66.25 -152.68,156.95 0,62 0.78,40.71 12.49,93.55 12.17,54.86 5.45,104.07 47.41,160.44 17.62,23.68 44.19,39.78 74.22,48.78 128.73,38.57 144.03,-49.84 167.01,-65.23 16.27,33.91 1.85,117.47 -4.73,156.47 -4.24,25.15 -11.46,47.41 -20.71,68.35 -3.93,8.89 -8.64,19.54 -15.73,26.69 -45.55,45.93 -102.81,-26.69 -141.2,-26.69 -38.09,0 -45.88,76.97 9.71,104.81 41.57,20.82 80.44,18.2 126,18.2 99.6,0 155.93,-118.35 182.97,-198.77l26.02 -101.24c20.29,-105.15 34.35,-327.33 -44.54,-407.41 -51.32,-52.1 -116.16,-39.88 -126.55,41.17l-8.35 131.63z"/>
  <path fill="#2B2A29" stroke="#2B2A29" stroke-width="2.36" stroke-miterlimit="22.9256" d="M1535.86 1276.5c-41.25,17.25 -69.68,30.84 -97,70.77 -26.41,38.61 -27.24,90.04 -21.74,138.85 4.11,36.48 26.95,116.32 -12.98,131.44 -47.93,18.15 -83.01,-12.41 -99.96,-60.19 -19.53,-55.06 -18.08,-243.61 -2.74,-301.84 33.13,-125.76 115.88,-94.25 136.26,-70.05 18.5,21.97 7.09,47.26 43.89,30.81 270.95,-121.08 276.85,283.47 205.51,379.02 -19.01,25.46 -58.7,35.46 -91.98,22.47 -44.81,-17.49 -45.22,-67.55 -35.89,-121.57 8.73,-50.55 87.38,-266.01 -23.37,-219.71zm-260.88 110.25c-0.47,59.34 -13.53,75.37 6.57,154.29 9.76,38.31 33.87,95.82 78.09,95.82 75.93,0 84.83,-10.02 84.83,-76.35 0,-72.7 -28.99,-102.11 -1.08,-183.48 20.61,-60.11 108.77,-92.24 111.35,-92.24 41.63,0 18.3,75.42 15.26,87.37 -16.15,63.34 -56.9,196.45 -10.2,242.67 6.84,6.78 19.07,14.18 28.12,18.54 28.75,13.89 64.11,9.92 90.84,-8.2 29.72,-20.15 42.23,-47.99 52.45,-83.28 23.31,-80.4 12.84,-255.59 -44.66,-312.58l-22.78 -23.87c-33.38,-33.37 -112.22,-32.53 -159.06,-17.35 -16.63,5.4 -16.42,11.36 -39.04,11.86 -3.29,-14.11 -2.86,-11.84 -12.19,-21.74l-12.14 -13.31c-21.47,-21.02 -74.77,-19.96 -98.61,-7.31 -72.15,38.26 -67.27,167.18 -67.75,229.16z"/>
  <path fill="#2B2A29" stroke="#2B2A29" stroke-width="2.36" stroke-miterlimit="22.9256" d="M1936.85 1323.36l-21.42 16.76c-15.64,16.81 -2.05,28.97 -47.7,41.37 -21.6,5.86 -29.2,8.71 -36.82,26.8 -23.04,54.71 -5.1,120.53 45.99,148.15 45.14,24.4 77.13,21.13 128.49,28.44 37.21,5.3 135.71,-1.98 175.43,-9.03 31.6,-5.62 99.72,-33.69 129.21,-57.42 28.56,-22.98 75.08,-62.46 90.12,-96.51 3.79,-8.59 4.45,-12.28 8.54,-21.14 17.35,-37.68 19.52,-94.69 8.84,-134.77 -7.17,-26.89 -32.28,-60.34 -47.79,-79.46 -11.54,-14.23 -102.61,-128.17 -106.71,-143.54 10.29,6.89 21.09,15.41 30.69,24.44 23.63,22.26 83.71,27.98 110.34,19.04 24.04,-8.05 20.98,-29.47 17.73,-49.48 -2.42,-14.89 -1.95,-31.32 -5.2,-41.53 -4.01,-12.57 -8.18,-16.97 -15.83,-26.59 -10.34,-12.99 -13,-13.55 -28.36,-18.3 -47.44,-14.7 -83.61,-39.55 -88.16,-94.23 13.41,-3.58 18.99,-9.73 28.71,-17.94 60.25,-50.9 68.94,-79.82 68.95,-164.57 0.01,-52.89 -4.16,-62.54 -26.57,-70.99 -57.59,-21.74 -105.57,-17.05 -160.74,2.65l-84.32 42.93c-102.12,86.58 -48.93,73.72 -211.81,85.08 -33.84,2.37 -68.84,28.15 -94.5,49.71 -12.53,10.53 -41.34,31.43 -47.34,46.24 -13.41,33.11 10.41,49.37 37.22,54.99 65.33,13.7 137.97,-28.29 155.34,-32.34 -33,68.78 -3.13,168.43 34.05,228.94l52.48 66.28c0.61,0.62 1.51,1.5 2.11,2.13 37.63,39.31 71.53,63.9 99.16,100.19 0.54,0.71 1.27,1.73 1.82,2.43 7.98,10.23 7.15,6.19 14.17,19.76 49.18,95.16 18.89,151.79 -62.59,213.55 -30.53,23.14 -58.27,30.93 -74.82,-12.5 -16.39,-43.02 18.08,-129.54 -27.13,-151.03 -13.73,-6.53 -40.1,-3.87 -51.58,1.49zm-9.66 61.09c-2.42,-28.63 2.45,-53.9 35.35,-45.26 -17.38,17.4 -19.37,71.58 -8.06,105.1 13.28,39.39 39.55,56.9 55.52,84.87 -37.57,-15.94 -49.69,-48.11 -61.22,-67.92 2.28,6.74 4.79,14.07 7.56,22.24l0.63 2.66c-7.14,-5.81 -13.24,-14.68 -18.29,-25.28 3.99,12.87 12.49,25.89 19.63,35.09l34.79 40.07c-18.49,-5.28 -33.6,-11.58 -44.54,-21.55 -28.7,-26.13 -36.04,-93.52 -75.01,-117.53 17.97,-6.41 32.06,-10.15 42.58,-20.12l6.01 20.65c-1.59,-15.21 -1.54,-29.52 0.2,-40.48 1.66,10.32 3.25,19.31 4.85,27.46zm180.5 -190.4c-31.34,-38.24 -83.9,-76.07 -99.02,-109.99 -22.47,-25.24 -50.22,-80.18 -52.19,-126.67 -7.66,-22.19 -3.16,-55.47 2.11,-79.63l15.43 -47.64c0.29,-0.5 4.08,-6.35 5.31,-8.14l4.23 -5.4c2.02,-13.2 58.22,-85.94 70.95,-91.78 10.14,-4.65 31.89,0.38 46.13,-0.57 113.31,-7.55 150.24,-16.69 147.68,60.04 -0.57,34.59 0.2,44.33 5.54,76.34 -14.62,14.1 -26.35,24.08 -36.71,35.72 -22.69,65.47 -4.05,54.47 1.63,108.84 11.57,12.31 19.8,43.83 57.4,88.04l30.67 41.63c11.78,15.26 24.39,27.96 33.29,44.13 12.98,16.46 42.04,49.99 52.71,73.49 11.08,24.4 27.24,84.1 7.89,106.32 1.91,64.58 -87.35,146.36 -143.16,170.65 -60.04,26.13 -123.59,44.16 -194.11,40.67 -28.1,-1.38 -39.32,-8.83 -44.18,-33.79 23.17,-25.44 81.37,-6.16 143.07,-93.6 63.05,-89.36 11.3,-153.46 5.2,-184.6 -7.65,-5.44 -11.59,-11.05 -18.28,-20.65 -23.21,-33.25 -21.03,-18.32 -41.59,-43.41zm151.39 -193.38c-14.74,-26.45 -22.63,-56.67 -23.77,-87.52 3.84,24.36 36.69,93.52 56.89,117.64 5.38,6.42 8.6,9.76 14.11,15.38l12.85 14.75c-34.1,-13.24 -43.4,-30.3 -60.08,-60.25zm39.17 -9.79c-12.93,-17.08 -54.76,-81.5 -47.95,-109.92 5.9,5.18 0.36,-2.68 6.15,7.4l2.66 5.96c4.92,12.23 3.83,20.92 15.58,39.2 38.83,60.39 65.76,63.55 117.63,82.19 11.72,4.21 6.8,2.46 12.49,6.53l1.66 25.69c-44.5,1.28 -84.53,-25.76 -108.22,-57.05zm-377.65 -147.24c-29.62,17.08 -166.63,56 -145.75,-13.87 28.09,4.18 23.02,18.95 72.5,19.11 45.61,0.16 36.29,-4.24 58,-7.11l15.25 1.87zm-33.88 -3.03c-29.11,5.51 -78.78,10.55 -100.08,-18.18 8.07,-12.72 9.19,-11.11 26.82,-23.12 30.81,9.07 38.12,22.58 80.63,21.46 37.24,-0.98 53.25,-15.39 78.7,-19.5 -10.81,20.96 -61.94,34.78 -86.07,39.34zm380.55 8.34c-21.91,-44.22 19.15,-113.08 -32.32,-134.3 -51.92,-21.41 -114.98,3.39 -164.09,-6.19 3.73,-10.49 86.03,-78.99 114.69,-79.56 16.68,-13.42 53.14,-19.54 73.68,-21.88 28.93,-3.31 54.12,0.68 80.53,8.34 35.38,10.26 28.88,70.16 24.92,102.39 -1.34,10.87 -2.53,23.37 -10.39,32.51 -1.54,16.95 -5.99,22.72 -14.43,34.73 -16.6,23.6 -43.51,53.48 -72.59,63.96zm-412.2 555.46c48.91,-0.15 48.06,84.28 97.85,122.86 19.04,14.75 36.01,12.3 54.55,19.99 -22.13,18.62 -75.62,-18.64 -94.96,-43.4 -10.99,-14.06 -20.01,-26.6 -30.95,-41.06 -23.46,-31.05 -27.4,-22.16 -36.98,-38.03l10.49 -20.36zm-13.84 34.31c36.95,-1.59 57.48,84.1 116.33,109.18 24.41,10.4 47.98,3.38 59.18,20.7 -81.36,-7.28 -193.95,-14.72 -175.51,-129.88zm181.53 79.36c-27.93,-10.9 -97.55,-90.64 -48.99,-181.56 47.43,15.05 -7.72,91.86 37.25,161.92 8.61,13.42 6.75,3.24 11.74,19.64zm384.83 -458.11c-17.6,37.38 -86.33,6.28 -128.43,-62.7 -8.15,-13.35 -23.07,-35.14 -19.3,-50.78 9.97,10.23 15.26,25.83 23.48,37.69 11,15.85 20.37,23 32.95,35.45 35.72,35.35 71.52,29.82 91.3,40.34zm-131.37 -140.26c-11,-22.81 -19.6,-34.85 -8.95,-51.89 16.91,24.52 7.04,57.2 58.85,82.41 37,18 65.65,17.46 75.06,58.28 -54.84,-2.13 -101.97,-41.18 -124.96,-88.8zm-361.8 -106.78c-23.35,2.78 -56.83,0.98 -78.46,-8.84 -11.49,-5.21 -7.95,-3.17 -14.69,-12.36l30.36 -20.35c70.75,24.73 69.94,15.14 143.3,-0.78 -13.22,25.69 -52.05,38.95 -80.51,42.33zm89.03 -54.4c-39.93,28.78 -104.11,25.75 -144.31,11.69 5.81,-8.8 0.05,-2.68 7.04,-9.23 4.08,-3.83 2.46,-2.66 7.82,-5.12 15.75,-7.26 108.23,-10.37 145.22,-16.39 -4.37,9.4 -2.56,9.52 -15.77,19.05zm239.64 251.81c-0.09,-0.09 -1.69,-0.85 -1.27,-1.27l1.27 1.27z"/>
  <path fill="#7688A1" stroke="#2B2A29" stroke-width="2.36" stroke-miterlimit="22.9256" d="M1934.36 1429.7c-2.67,-10.39 -7.21,-25.44 -8.7,-29.77 -6.8,-19.74 -2.21,-24.6 -3.32,-42.94 -1.74,10.96 -1.79,25.27 -0.2,40.48 2.25,21.62 7.81,45.07 16.54,63.39 5.05,10.6 11.15,19.47 18.29,25.28 -0.02,-0.01 -2.67,-4.28 -2.93,-4.69 -3.51,-5.59 -11.39,-22.07 -15.33,-33.28 -1.34,-3.79 -2.22,-6.99 -2.33,-8.94 -0.09,-1.56 -0.89,-5.12 -2.02,-9.53z"/>
  <path fill="#2B2A29" stroke="#2B2A29" stroke-width="2.36" stroke-miterlimit="22.9256" d="M2282.35 1271.73c12.04,26.9 14.19,61.7 2.54,94.33 -13.74,38.52 -76.08,96.65 -111.06,118.07l-53.36 31.21c-19.55,10.03 -10.77,-0.11 -15.63,16.3 14.03,-2.39 27.2,-11.47 39.41,-17.74 47.32,-24.31 81.84,-10.17 171.03,-108.88 35.9,-39.74 25.45,-60.02 37.51,-74.6 0.04,-88.38 -37.16,-108.39 -75.49,-151 -27.01,-13.54 -79.56,-51.32 -98.42,-73.29 -18.74,-21.83 -59.19,-77.7 -66.39,-100.43 -9.86,-13.33 -15.13,-32.37 -18.37,-49.32 -1.86,-9.78 -5.33,-56.72 4.99,-58.3 1.21,-23.6 14.96,-48.17 28.38,-61.03 28.86,-49.38 62.5,-52.65 67.37,-78.29 -25.7,3.01 -40,39.54 -91.77,69.1 -30.75,25.65 -67.43,68.31 -68.45,125.56 -0.68,44.26 1.52,51.14 20,86.07 7.21,13.62 13.34,21.14 23.41,31.55 9.29,9.59 19.08,14.48 28.09,27.09 13.98,-1.22 26.8,16.13 57.56,27.4 29.92,10.96 33.46,18.89 50.28,38.62 17.75,20.83 62.55,75.28 68.37,107.58zm28.7 100.64c-18.55,-18.18 -9.61,-26.22 -5.61,-32.51 17.28,9.34 18.35,27.33 18.74,40.71 -10.2,-4.33 -6.12,-1.33 -13.13,-8.2zm-167.3 -290.81c1.61,13.34 -7.1,17.31 -7.96,18.32 -13.12,-16.48 -8.77,-23.85 0.02,-35.38 3.45,8.14 7.25,11.3 7.94,17.06zm-23.04 -12.19c-5.47,16.97 1.51,9.21 -10.73,15.64 -5.17,-10.5 -3.77,8.3 -4.32,-20.89l4.1 -26.63c14.28,6.11 5.65,0.73 16.71,14.05 -2.5,8.11 -3.02,9.37 -5.76,17.83zm36.29 40.47c-4.07,-4.37 -3.09,2.04 -3.96,-7.77 -1.83,-20.78 -0.48,-2.19 5.46,-7.92l-1.5 15.69zm-59.38 -101.3c12.84,13.61 10.55,17.48 -4.24,59.29 -6.93,-4.34 -15.67,-8.44 -15.67,-20.58 0,-4.41 4,-15.71 6.48,-21.89 6.35,-15.75 1.72,-9.61 13.43,-16.82zm-9.19 -9.26l-3.92 5.29c-13.92,19.54 -10.63,21.69 -16.58,31.71 -10.19,-7.53 -5.39,-3.61 -11.66,-13.59 2.76,-27.48 14.57,-33.21 29.72,-48.25l8.88 15.14c-6.95,11.65 -0.51,1.26 -6.44,9.7zm184.36 408.36l10.08 -8.84c5.2,6.22 5.74,-10.15 6.31,12.99 0.53,21.31 2.04,0.2 -5.26,10.01 -2.31,-0.82 -6.62,-9.08 -11.13,-14.16zm33.41 -3.15c-11.61,-8.15 -23.16,-20.78 -9.24,-34.35 10.68,12.69 13.69,21.24 9.24,34.35zm-84.88 66.19c1.24,-13.68 2.11,-12.33 14.12,-18.04 -4.86,18.48 -5.21,8.56 -14.12,18.04zm30.31 -34.51l0.25 16.76c-10.43,-2.42 -8.02,-1.11 -13.32,-7.88 3.52,-2.77 11.92,-8.08 13.07,-8.88zm14.04 -18.28c6.61,10.56 6.38,10.84 2.27,24 -0.08,-0.1 -7.85,-4.81 -8.32,-13.23 -0.62,-11.06 -1.86,-2.12 6.05,-10.77zm39.77 -110.48c16.13,3.87 25.2,18.69 33.1,32.56l-4.37 15.97c-28.02,-36.07 -37,-29.4 -28.73,-48.53zm35.18 12.56c-2.9,-4.33 -14.72,-16.09 -24.22,-20.75 -25.19,-12.34 -12.6,4.36 -20.73,-28.3 23.14,3.09 32.56,14.06 46.57,27.19l-1.62 21.86zm-51.73 -59.98l-7.04 -20.01c14,-0.22 22.48,3.39 32.63,10.27 13.85,9.4 17.67,11.36 20.19,27.1 -14.72,-8.52 -25.22,-16.92 -45.78,-17.36zm27.26 -23.41c-12.48,0.12 -13.12,-3.4 -27.84,-7.14 -18.38,-4.68 -17.07,1.65 -20.28,-15.82 31.49,7.65 27.1,8.42 48.12,22.96zm-54.76 -51.26c-18.25,-0.03 -14.66,2.91 -22.64,-9.77 12.31,-0.56 18.05,-1.28 22.64,9.77zm-26.78 -22.28c-0.09,-0.08 -1.69,-0.84 -1.27,-1.27l1.27 1.27zm-12.73 -8.49c-0.08,-0.07 -1.68,-0.83 -1.26,-1.26l1.26 1.26zm-152.82 -178.27c-18.08,17.39 2.4,12.25 -22.96,20.97 -0.94,-21.4 -1.56,-25.14 10.31,-37.81 4.64,-4.94 18.7,-17.58 25.62,-10.59 13.31,13.45 -7.74,22.4 -12.97,27.43zm11.69 -61.75c0.06,16.14 -1.65,23.47 -35.53,40.13 1.65,-20.17 10.71,-29.74 35.53,-40.13zm10.62 -39.19c-3.3,14.05 -8.69,39.94 -38.81,39.67 7.11,-19.67 20.75,-29.95 38.81,-39.67zm16.52 -33.4c-6.99,17.3 -3.97,19.77 -26.69,24.31 5.64,-14.24 10.19,-19.15 26.69,-24.31z"/>
  <path fill="#2B2A29" stroke="#2B2A29" stroke-width="2.36" stroke-miterlimit="22.9256" d="M1936.38 1439.23c-0.09,-1.56 -0.89,-5.12 -2.02,-9.53 -2.67,-10.39 -7.21,-25.44 -8.7,-29.77 -6.8,-19.74 -2.21,-24.6 -3.32,-42.94 -1.74,10.96 -1.79,25.27 -0.2,40.48 2.25,21.62 7.81,45.07 16.54,63.39 5.05,10.6 11.15,19.47 18.29,25.28 -0.02,-0.01 -2.67,-4.28 -2.93,-4.69 -3.51,-5.59 -11.39,-22.07 -15.33,-33.28 -1.34,-3.79 -2.22,-6.99 -2.33,-8.94z"/>
 </g>
</svg>
